<?xml version="1.0" encoding="utf-8"?>
<svg id="master-artboard" viewBox="0 0 987.8627319335938 629.9219970703125" version="1.1" xmlns="http://www.w3.org/2000/svg" x="0px" y="0px" style="enable-background:new 0 0 1400 980;" width="987.8627319335938px" height="629.9219970703125px"><defs><style id="ee-google-fonts">@import url(https://fonts.googleapis.com/css?family=Anton:400|Roboto+Slab:100,300,400,700);</style><path id="text-path-0" d="M 778.8464965820312 213.4612274169922 A 100 18 0 0 1 988.3533935546875 213.4612274169922 A 100 18 0 0 1 778.8464965820312 213.4612274169922 Z" style="fill: none; stroke: red; stroke-width: 2;"/><path id="text-path-1" d="M 664.5464477539062 37.96122741699219 A 100 19 0 0 1 876.5812377929688 37.96122741699219 A 100 19 0 0 1 664.5464477539062 37.96122741699219" style="fill: none; stroke: red; stroke-width: 2;"/><path id="text-path-2" d="M 765.3650512695312 211.70851135253906 A 100 17 0 0 1 991.5017700195312 211.70851135253906 A 100 17 0 0 1 765.3650512695312 211.70851135253906" style="fill: none; stroke: red; stroke-width: 2;"/><path id="path-1" d="M 765.3650512695312 211.70851135253906 A 100 17 0 0 1 991.5017700195312 211.70851135253906 A 100 17 0 0 1 765.3650512695312 211.70851135253906" style="fill: none; stroke: red; stroke-width: 2;"/></defs><rect id="ee-background" x="0" y="0" width="987.8627319335938" height="629.9219970703125" style="fill: white; fill-opacity: 0; pointer-events: none;"/>


<g transform="matrix(1.9140625, 0, 0, 1.9140625, 3.1357550621032715, -173.44773864746094)"><g>
	<g>
		<path d="M452.267,145.067h-92.535c-2.483,0-4.685-1.493-5.402-3.217l-9.617-30.157c-3.396-10.658-13.193-17.826-24.388-17.826&#10;&#9;&#9;&#9;H191.667c-11.187,0-20.992,7.168-24.388,17.826l-9.412,29.585c-0.922,2.295-3.115,3.789-5.598,3.789H59.733&#10;&#9;&#9;&#9;C26.795,145.067,0,171.87,0,204.8v153.6c0,32.93,26.795,59.733,59.733,59.733h392.533c32.939,0,59.733-26.803,59.733-59.733V204.8&#10;&#9;&#9;&#9;C512,171.87,485.205,145.067,452.267,145.067z M309.641,347.964c-15.113,12.237-34.159,18.97-53.641,18.97&#10;&#9;&#9;&#9;c-47.053,0-85.333-38.281-85.333-85.333v-4.983l-2.526,2.509c-3.345,3.328-8.747,3.311-12.066-0.051&#10;&#9;&#9;&#9;c-3.319-3.337-3.294-8.747,0.051-12.066l16.759-16.623c0.29-0.333,0.614-0.597,0.956-0.879c1.493-1.306,3.354-2.202,5.333-2.031&#10;&#9;&#9;&#9;c0.008,0,0.017-0.009,0.026-0.009s0.009,0.009,0.009,0.009c0.06,0,0.111-0.017,0.162-0.009c2.261,0.009,4.429,0.913,6.025,2.526&#10;&#9;&#9;&#9;l16.93,17.067c3.32,3.345,3.294,8.747-0.051,12.066c-1.664,1.647-3.84,2.475-6.008,2.475c-2.193,0-4.395-0.845-6.059-2.526&#10;&#9;&#9;&#9;l-2.475-2.492v5.018c0,37.641,30.626,68.267,68.267,68.267c15.804,0,30.643-5.239,42.897-15.164&#10;&#9;&#9;&#9;c3.669-2.961,9.037-2.415,12.006,1.263C313.865,339.627,313.301,345.003,309.641,347.964z M355.874,279.125l-16.759,16.623&#10;&#9;&#9;&#9;c-1.562,1.758-3.78,2.918-6.315,2.918c-0.026,0-0.043-0.017-0.068-0.017s-0.043,0.017-0.068,0.017h-0.034&#10;&#9;&#9;&#9;c-2.261-0.009-4.429-0.913-6.025-2.526l-16.93-17.067c-3.319-3.337-3.294-8.747,0.051-12.066&#10;&#9;&#9;&#9;c3.345-3.319,8.755-3.294,12.066,0.051l1.135,1.143c-6.238-31.249-33.869-54.869-66.927-54.869&#10;&#9;&#9;&#9;c-15.804,0-30.635,5.24-42.906,15.155c-3.669,2.961-9.037,2.398-12.006-1.263c-2.961-3.669-2.389-9.045,1.271-11.998&#10;&#9;&#9;&#9;c15.121-12.228,34.167-18.961,53.641-18.961c43.23,0,78.959,32.341,84.497,74.069l3.362-3.328&#10;&#9;&#9;&#9;c3.345-3.319,8.755-3.294,12.066,0.051C359.245,270.404,359.219,275.806,355.874,279.125z" style="fill: rgb(253, 255, 245);"/>
	</g>
</g><g>
</g><g>
</g><g>
</g><g>
</g><g>
</g><g>
</g><g>
</g><g>
</g><g>
</g><g>
</g><g>
</g><g>
</g><g>
</g><g>
</g><g>
</g></g></svg>